
<svg width="79px" height="44px" viewBox="0 0 79 44" version="1.1" xmlns="http://www.w3.org/2000/svg" xmlns:xlink="http://www.w3.org/1999/xlink">
    <!-- Generator: Sketch 51.2 (57519) - http://www.bohemiancoding.com/sketch -->
    <desc>Created with Sketch.</desc>
    <defs>
        <path d="M3.36993548,7.9125 L2.84406452,10.47 C8.0256129,10.4508333 24.3276129,4.49833333 25.0849677,0.946666667 C25.0849677,0.9475 25.1352903,0.714166667 25.1839355,0.480833333 C25.2325806,0.246666667 25.2803871,0.0133333333 25.2803871,0.0133333333 C18.2150968,4.73583333 7.54587097,7.9025 3.36993548,7.9125 M2.38109677,12.3266667 L1.89212903,14.6816667 C6.88748387,14.6716667 23.3748387,8.70916667 24.1321935,5.1575 L24.341871,4.14166667 C17.0383871,9.16666667 6.81116129,12.2033333 2.38109677,12.3266667 M1.31677419,16.6225 L0.809354839,19.09 L0.812709677,19.1783333 C5.86341935,19.0658333 22.276129,13.2033333 23.0326452,9.6575 L23.2817419,8.4425 C17.6212903,12.3516667 5.87516129,16.6475 1.31677419,16.6225" id="path-1"></path>
        <linearGradient x1="-6.5026634%" y1="2.08552309%" x2="114.320974%" y2="-3.26740717%" id="linearGradient-3">
            <stop stop-color="#2BA7DF" offset="0%"></stop>
            <stop stop-color="#175882" offset="40.625%"></stop>
            <stop stop-color="#EBC71B" offset="100%"></stop>
        </linearGradient>
    </defs>
    <g id="Landing-Page" stroke="none" stroke-width="1" fill="none" fill-rule="evenodd">
        <g transform="translate(-238.000000, -88.000000)" id="Group-13">
            <g>
                <g id="Group-2" transform="translate(238.000000, 88.000000)">
                    <g id="Group-7" transform="translate(24.000000, 0.000000)">
                        <mask id="mask-2" fill="white">
                            <use xlink:href="#path-1"></use>
                        </mask>
                        <g id="Clip-6"></g>
                        <path d="M3.36993548,7.9125 L2.84406452,10.47 C8.0256129,10.4508333 24.3276129,4.49833333 25.0849677,0.946666667 C25.0849677,0.9475 25.1352903,0.714166667 25.1839355,0.480833333 C25.2325806,0.246666667 25.2803871,0.0133333333 25.2803871,0.0133333333 C18.2150968,4.73583333 7.54587097,7.9025 3.36993548,7.9125 M2.38109677,12.3266667 L1.89212903,14.6816667 C6.88748387,14.6716667 23.3748387,8.70916667 24.1321935,5.1575 L24.341871,4.14166667 C17.0383871,9.16666667 6.81116129,12.2033333 2.38109677,12.3266667 M1.31677419,16.6225 L0.809354839,19.09 L0.812709677,19.1783333 C5.86341935,19.0658333 22.276129,13.2033333 23.0326452,9.6575 L23.2817419,8.4425 C17.6212903,12.3516667 5.87516129,16.6475 1.31677419,16.6225" id="Fill-5" fill="url(#linearGradient-3)" mask="url(#mask-2)"></path>
                    </g>
                    <g id="Group-24" transform="translate(0.000000, 24.000000)" fill="#165780">
                        <path d="M0.671829167,0.342833333 L2.52915208,0.342833333 L2.52915208,6.912 L2.57194375,6.912 C3.23274583,5.74533333 4.42762083,4.98866667 6.09320417,4.98866667 C8.65412083,4.98866667 10.4670063,7.14866667 10.4456104,10.3278333 C10.4456104,14.0645 8.12087083,15.9228333 5.81505833,15.9228333 C4.32064167,15.9228333 3.12494375,15.3395 2.35798542,13.957 L2.292975,13.957 L2.2090375,15.6853333 L0.586245833,15.6853333 C0.6290375,14.972 0.671829167,13.912 0.671829167,12.9836667 L0.671829167,0.342833333 Z M2.52915208,11.4928333 C2.52915208,11.7303333 2.57194375,11.967 2.6139125,12.1845 C2.97681875,13.502 4.06471458,14.4103333 5.43075625,14.4103333 C7.39423542,14.4103333 8.5685375,12.7895 8.5685375,10.3903333 C8.5685375,8.2945 7.50039167,6.50033333 5.49494375,6.50033333 C4.2136625,6.50033333 3.01961042,7.387 2.63448542,8.83533333 C2.59251667,9.05116667 2.52915208,9.3095 2.52915208,9.61283333 L2.52915208,11.4928333 Z" id="Fill-8"></path>
                        <path d="M19.8150927,13.178 C19.8150927,14.0863333 19.8578844,14.9713333 19.9854365,15.6855 L18.2778844,15.6855 L18.1281135,14.3663333 L18.064749,14.3663333 C17.4878844,15.1888333 16.3769469,15.923 14.9063948,15.923 C12.8137177,15.923 11.7488635,14.433 11.7488635,12.9205 C11.7488635,10.3905 13.9674469,9.00716667 17.9569469,9.0305 L17.9569469,8.813 C17.9569469,7.94883333 17.7232385,6.393 15.6116344,6.393 C14.6496448,6.393 13.6473323,6.69466667 12.9206969,7.17133333 L12.4936031,5.918 C13.3477906,5.35633333 14.5871031,4.98883333 15.8873115,4.98883333 C19.0456656,4.98883333 19.8150927,7.17133333 19.8150927,9.26633333 L19.8150927,13.178 Z M18.0005615,10.3463333 C15.950676,10.303 13.6259365,10.6713333 13.6259365,12.7021667 C13.6259365,13.9338333 14.4365094,14.5188333 15.3960302,14.5188333 C16.741499,14.5188333 17.5948635,13.653 17.8927594,12.768 C17.9569469,12.5721667 18.0005615,12.3563333 18.0005615,12.163 L18.0005615,10.3463333 Z" id="Fill-10"></path>
                        <path d="M22.696124,8.0555 C22.696124,6.9755 22.6739052,6.09133333 22.6105406,5.2255 L24.2736552,5.2255 L24.3814573,6.95383333 L24.424249,6.95383333 C24.936926,5.96133333 26.131801,4.988 27.8393531,4.988 C29.2671135,4.988 31.4881656,5.853 31.4881656,9.43966667 L31.4881656,15.6838333 L29.608624,15.6838333 L29.608624,9.6555 C29.608624,7.96883333 28.9914365,6.56466667 27.218874,6.56466667 C25.9820302,6.56466667 25.0200406,7.45133333 24.700749,8.5105 C24.6151656,8.74716667 24.572374,9.07133333 24.572374,9.398 L24.572374,15.6838333 L22.696124,15.6838333" id="Fill-12"></path>
                        <path d="M36.0974042,10.023 L36.1401958,10.023 C36.3961229,9.6555 36.7582063,9.20133333 37.0585708,8.83383333 L40.08855,5.2255 L42.3507479,5.2255 L38.3596021,9.52633333 L42.9037479,15.6838333 L40.6218,15.6838333 L37.0585708,10.6713333 L36.0974042,11.7513333 L36.0974042,15.6838333 L34.2392583,15.6838333 L34.2392583,0.343 L36.0974042,0.343" id="Fill-14"></path>
                        <path d="M58.3772969,5.596 C58.307349,5.51183333 58.237401,5.42683333 58.1633385,5.35016667 C58.0431927,5.22266667 57.9074115,5.10266667 57.763401,4.99016667 C56.9873906,4.34683333 56.0476198,3.9685 55.0346094,3.9685 C53.942599,3.9685 52.9369948,4.41266667 52.1264219,5.15183333 C52.1025573,5.16683333 52.0828073,5.1835 52.0589427,5.19683333 C52.0293177,5.21266667 51.9881719,5.23266667 51.9412656,5.22016667 C51.8079531,5.18516667 51.6664115,5.041 51.6647656,4.836 L51.6647656,0.559333333 C51.6647656,0.290166667 51.4466927,0.0735 51.1808906,0.0735 L49.1252448,0.0735 C48.856974,0.0735 48.6405469,0.290166667 48.6405469,0.559333333 L48.6405469,0.706833333 C48.6405469,0.7135 48.638901,0.717666667 48.638901,0.722666667 L48.638901,1.21933333 L48.6430156,15.0068333 C48.6430156,15.2801667 48.8619115,15.5018333 49.1310052,15.5018333 L50.9916198,15.5018333 C51.1101198,15.5018333 51.2179219,15.4576667 51.3018594,15.3851667 C51.305151,15.3826667 51.3092656,15.3826667 51.3109115,15.381 C51.3142031,15.3785 51.315026,15.3751667 51.3166719,15.3735 C51.3569948,15.3385 51.3882656,15.296 51.413776,15.2493333 L51.4154219,15.2493333 C51.4466927,15.1893333 51.4680885,15.1251667 51.4754948,15.0535 C51.512526,14.7493333 51.7174323,14.581 51.8449844,14.6243333 C51.887776,14.6385 51.9297448,14.6593333 51.9725365,14.6901667 C52.016151,14.7185 52.0589427,14.7468333 52.1009115,14.7743333 C52.2268177,14.8685 52.7814635,15.2526667 53.211026,15.4468333 C53.4274531,15.5435 54.1178802,15.781 54.9185781,15.781 C55.720099,15.781 56.2895573,15.601 56.4236927,15.5651667 C56.558651,15.5285 56.6911406,15.4835 56.8186927,15.4235 C57.4465781,15.151 57.9502031,14.7743333 58.3336823,14.2993333 C58.7130469,13.8326667 59.027401,13.2801667 59.2825052,12.6451667 C59.6610469,11.8101667 59.8758281,10.8518333 59.8758281,9.831 C59.8758281,8.16433333 59.2997865,6.6635 58.3772969,5.596 M54.1343385,13.5793333 C52.628401,13.5793333 51.4063698,11.936 51.4063698,9.911 C51.4063698,7.88516667 52.628401,6.24266667 54.1343385,6.24266667 C55.6386302,6.24266667 56.8590156,7.88516667 56.8590156,9.911 C56.8590156,11.936 55.6386302,13.5793333 54.1343385,13.5793333" id="Fill-16"></path>
                        <path d="M65.225774,5.1955 C65.2233052,5.168 65.2208365,5.1405 65.2183677,5.11383333 L65.2183677,4.748 C65.2183677,4.47383333 65.0002948,4.2505 64.7287323,4.2505 L62.658274,4.2505 C62.3867115,4.2505 62.1661698,4.47383333 62.1661698,4.748 L62.1661698,16.0471667 C62.1562948,16.3355 61.8106698,16.7288333 61.4107323,16.8271667 C61.2272219,16.8846667 61.0428885,16.9113333 60.8560865,16.903 C60.6717531,16.8963333 60.544201,16.9721667 60.4717844,17.1305 C60.4438052,17.2013333 60.4232323,17.2955 60.4075969,17.4121667 C60.3944302,17.5271667 60.4100656,18.738 60.4191177,18.838 C60.426524,18.9396667 60.4438052,19.0246667 60.4717844,19.0971667 C60.5573677,19.2271667 60.7079615,19.313 60.920274,19.3571667 C60.9910448,19.3871667 62.3661385,19.3896667 63.2910969,19.163 C63.654826,19.0746667 63.9461385,18.8971667 64.1897219,18.7105 C64.4291906,18.5221667 64.6439719,18.2846667 64.830774,17.9946667 C65.0439094,17.6496667 65.1607635,17.2138333 65.1829823,16.688 C65.1895656,16.5288333 65.2183677,16.1146667 65.2183677,16.0655 L65.2183677,5.79966667 C65.2208365,5.74383333 65.2224823,5.68883333 65.225774,5.62883333 C65.2323573,5.4855 65.2323573,5.3405 65.225774,5.1955" id="Fill-18"></path>
                        <path d="M77.3879062,5.596 C77.3196042,5.51183333 77.2496562,5.42683333 77.1747708,5.35016667 C77.0538021,5.22266667 76.9180208,5.10266667 76.7756562,4.99016667 C75.9988229,4.34683333 75.0590521,3.9685 74.0452187,3.9685 C72.9540313,3.9685 71.94925,4.41266667 71.1386771,5.15183333 C71.1148125,5.16683333 71.0942396,5.1835 71.0695521,5.19683333 C71.04075,5.21266667 71.00125,5.23266667 70.9535208,5.22016667 C70.8202083,5.18516667 70.6778437,5.041 70.675375,4.836 L70.675375,0.559333333 C70.675375,0.290166667 70.4589479,0.0735 70.1923229,0.0735 L68.1375,0.0735 C67.8692292,0.0735 67.6528021,0.290166667 67.6528021,0.559333333 L67.6528021,0.706833333 C67.6528021,0.7135 67.6511562,0.717666667 67.6511562,0.722666667 L67.6511562,1.21933333 L67.653625,15.0068333 C67.653625,15.2801667 67.8725208,15.5018333 68.1432604,15.5018333 L70.0014062,15.5018333 C70.1215521,15.5018333 70.2301771,15.4576667 70.3141146,15.3851667 C70.3165833,15.3826667 70.3190521,15.3826667 70.3215208,15.381 C70.3248125,15.3785 70.3264583,15.3751667 70.3289271,15.3735 C70.3667813,15.3385 70.3996979,15.296 70.4260313,15.2493333 L70.4268542,15.2476667 C70.4589479,15.1893333 70.4795208,15.1251667 70.4869271,15.0535 C70.5239583,14.7493333 70.7280417,14.581 70.8564167,14.6243333 C70.8992083,14.6385 70.9428229,14.6593333 70.9847917,14.6901667 C71.0267604,14.7185 71.0695521,14.7468333 71.1131667,14.7743333 C71.23825,14.8685 71.7937187,15.2526667 72.2232812,15.4468333 C72.4388854,15.5435 73.1276667,15.781 73.9308333,15.781 C74.7307083,15.781 75.3001667,15.601 75.435125,15.5651667 C75.5709062,15.5285 75.7025729,15.4835 75.830125,15.4235 C76.4555417,15.151 76.9616354,14.7743333 77.3459375,14.2993333 C77.7253021,13.8326667 78.0396562,13.2801667 78.2939375,12.6451667 C78.6716562,11.8101667 78.8872604,10.8518333 78.8872604,9.831 C78.8872604,8.16433333 78.3103958,6.6635 77.3879062,5.596 M73.1457708,13.5793333 C71.6398333,13.5793333 70.418625,11.936 70.418625,9.911 C70.418625,7.88516667 71.6398333,6.24266667 73.1457708,6.24266667 C74.6508854,6.24266667 75.8704479,7.88516667 75.8704479,9.911 C75.8704479,11.936 74.6508854,13.5793333 73.1457708,13.5793333" id="Fill-20"></path>
                        <path d="M63.6563073,0.197833333 C63.362526,0.202 63.1024844,0.2695 62.8802969,0.401166667 C62.661401,0.536166667 62.4918802,0.717833333 62.3709115,0.9395 C62.2458281,1.16533333 62.1841094,1.41283333 62.1841094,1.68866667 C62.1841094,1.95533333 62.2458281,2.19616667 62.3626823,2.41783333 C62.4770677,2.63783333 62.6441198,2.81533333 62.8523177,2.95033333 C63.067099,3.08116667 63.3172656,3.1495 63.6036406,3.15366667 C63.9245781,3.1495 64.1969635,3.08116667 64.419974,2.95033333 C64.6429844,2.81533333 64.8116823,2.63783333 64.9285365,2.41783333 C65.0445677,2.19616667 65.1021719,1.95533333 65.1021719,1.68866667 C65.1021719,1.41283333 65.041276,1.16533333 64.923599,0.9395 C64.8075677,0.717833333 64.6388698,0.536166667 64.4240885,0.401166667 C64.2101302,0.2695 63.9509115,0.202 63.6563073,0.197833333" id="Fill-22"></path>
                    </g>
                </g>
            </g>
        </g>
    </g>
</svg>